<svg width="32" height="32" viewBox="0 0 32 32" fill="none" xmlns="http://www.w3.org/2000/svg">
<g clip-path="url(#clip0_741_1145)">
<path d="M9.37347 0.112144C7.67107 0.192464 6.50851 0.464144 5.49219 0.863504C4.44035 1.27342 3.54883 1.8235 2.66179 2.71374C1.77475 3.60398 1.22851 4.49614 0.821466 5.54958C0.427546 6.56814 0.160666 7.73166 0.085466 9.43502C0.010266 11.1384 -0.00637406 11.6859 0.00194594 16.0309C0.0102659 20.3758 0.0294659 20.9205 0.112026 22.6273C0.193306 24.3294 0.464026 25.4917 0.863386 26.5083C1.27395 27.5601 1.82339 28.4513 2.71395 29.3387C3.60451 30.2261 4.49603 30.771 5.55203 31.1787C6.56963 31.572 7.73347 31.8401 9.43651 31.9147C11.1395 31.9893 11.6877 32.0065 16.0314 31.9982C20.3751 31.9899 20.9219 31.9707 22.6285 31.8897C24.3351 31.8088 25.4912 31.5361 26.5082 31.1387C27.56 30.7272 28.4519 30.1787 29.3386 29.2878C30.2253 28.3969 30.7712 27.5041 31.1779 26.4501C31.5722 25.4325 31.84 24.2686 31.9139 22.5669C31.9885 20.859 32.0061 20.3137 31.9978 15.9694C31.9895 11.6251 31.9699 11.0805 31.889 9.37422C31.808 7.66798 31.537 6.50926 31.1379 5.49198C30.7267 4.44014 30.1779 3.54958 29.2877 2.66158C28.3975 1.77358 27.504 1.22798 26.4503 0.822224C25.432 0.428304 24.2688 0.159824 22.5658 0.0862243C20.8627 0.0126243 20.3146 -0.00625568 15.9693 0.00206432C11.624 0.0103843 11.08 0.0289443 9.37347 0.112144ZM9.56035 29.0363C8.00035 28.9685 7.15331 28.7093 6.58883 28.4923C5.84131 28.2043 5.30883 27.8561 4.74627 27.299C4.18371 26.7419 3.83811 26.2075 3.54627 25.4616C3.32707 24.8971 3.06307 24.051 2.99011 22.491C2.91075 20.8049 2.89411 20.2987 2.88483 16.027C2.87555 11.7553 2.89187 11.2497 2.96579 9.56302C3.03235 8.0043 3.29315 7.1563 3.50979 6.59214C3.79779 5.84366 4.14467 5.31214 4.70307 4.7499C5.26147 4.18766 5.79427 3.84142 6.54083 3.54958C7.10467 3.32942 7.95075 3.06766 9.51011 2.99342C11.1975 2.91342 11.7031 2.89742 15.9741 2.88814C20.2451 2.87886 20.752 2.89486 22.44 2.9691C23.9987 3.03694 24.8471 3.29518 25.4106 3.5131C26.1584 3.8011 26.6906 4.14702 27.2528 4.70638C27.8151 5.26574 28.1616 5.79662 28.4535 6.54478C28.6739 7.10702 28.9357 7.95278 29.0093 9.5131C29.0896 11.2005 29.1079 11.7064 29.1155 15.9771C29.1232 20.2478 29.1082 20.755 29.0343 22.4411C28.9661 24.0011 28.7075 24.8485 28.4903 25.4136C28.2023 26.1608 27.8551 26.6936 27.2963 27.2555C26.7376 27.8174 26.2055 28.1637 25.4586 28.4555C24.8954 28.6753 24.0483 28.9377 22.4903 29.012C20.8029 29.0913 20.2973 29.108 16.0247 29.1173C11.752 29.1265 11.2477 29.1093 9.56035 29.0363ZM22.6039 7.44878C22.6045 7.82855 22.7177 8.1996 22.9293 8.515C23.1408 8.83041 23.4411 9.076 23.7922 9.22071C24.1433 9.36543 24.5295 9.40277 24.9018 9.32801C25.2741 9.25326 25.616 9.06976 25.884 8.80073C26.152 8.53171 26.3343 8.18923 26.4077 7.81662C26.4811 7.44401 26.4423 7.05801 26.2963 6.70743C26.1503 6.35685 25.9036 6.05744 25.5874 5.84707C25.2713 5.6367 24.8998 5.52483 24.52 5.52558C24.0109 5.5266 23.5231 5.72978 23.1637 6.09043C22.8044 6.45108 22.603 6.93968 22.6039 7.44878ZM7.78467 16.0161C7.79363 20.5537 11.4787 24.2238 16.0154 24.2152C20.552 24.2065 24.2247 20.5217 24.216 15.9841C24.2074 11.4465 20.5213 7.7755 15.984 7.78446C11.4467 7.79342 7.77603 11.4792 7.78467 16.0161ZM10.6666 16.0104C10.6645 14.9555 10.9753 13.9237 11.5596 13.0455C12.1439 12.1673 12.9755 11.482 13.9493 11.0764C14.923 10.6708 15.9952 10.5631 17.0302 10.7668C18.0652 10.9706 19.0165 11.4766 19.7639 12.2211C20.5112 12.9655 21.0211 13.9148 21.2289 14.949C21.4367 15.9831 21.3332 17.0557 20.9315 18.0311C20.5298 19.0064 19.8478 19.8408 18.9719 20.4285C18.096 21.0163 17.0654 21.3312 16.0106 21.3333C15.3102 21.3347 14.6163 21.1982 13.9687 20.9315C13.321 20.6648 12.7322 20.2731 12.236 19.7788C11.7397 19.2845 11.3457 18.6973 11.0764 18.0507C10.8072 17.4041 10.6679 16.7108 10.6666 16.0104Z" fill="white"/>
</g>
<defs>
<clipPath id="clip0_741_1145">
<rect width="32" height="32" fill="white"/>
</clipPath>
</defs>
</svg>
