<svg width="32" height="32" viewBox="0 0 32 32" fill="none" xmlns="http://www.w3.org/2000/svg">
<path d="M27.3367 4.656C24.3296 1.648 20.3256 0 16.0643 0C7.28442 0 0.128643 7.12 0.128643 15.856C0.128643 18.656 0.868342 21.376 2.25126 23.776L0 32L8.44221 29.792C10.7739 31.056 13.395 31.728 16.0643 31.728C24.8442 31.728 32 24.608 32 15.872C32 11.632 30.3437 7.648 27.3367 4.656ZM16.0643 29.04C13.6844 29.04 11.3528 28.4 9.31055 27.2L8.82814 26.912L3.81106 28.224L5.14573 23.36L4.82412 22.864C3.50553 20.768 2.79799 18.336 2.79799 15.856C2.79799 8.592 8.74774 2.672 16.0482 2.672C19.5859 2.672 22.9146 4.048 25.407 6.544C27.9156 9.04 29.2824 12.352 29.2824 15.872C29.3146 23.136 23.3648 29.04 16.0643 29.04ZM23.3327 19.184C22.9307 18.992 20.9688 18.032 20.6151 17.888C20.2452 17.76 19.9879 17.696 19.7146 18.08C19.4412 18.48 18.6854 19.376 18.4603 19.632C18.2352 19.904 17.994 19.936 17.592 19.728C17.1899 19.536 15.9035 19.104 14.392 17.76C13.202 16.704 12.4141 15.408 12.1729 15.008C11.9477 14.608 12.1407 14.4 12.3497 14.192C12.5266 14.016 12.7518 13.728 12.9447 13.504C13.1377 13.28 13.2181 13.104 13.3467 12.848C13.4754 12.576 13.4111 12.352 13.3146 12.16C13.2181 11.968 12.4141 10.016 12.0925 9.216C11.7709 8.448 11.4332 8.544 11.192 8.528C10.9508 8.528 10.6935 8.528 10.4201 8.528C10.1467 8.528 9.72864 8.624 9.35879 9.024C9.00502 9.424 7.97588 10.384 7.97588 12.336C7.97588 14.288 9.40703 16.176 9.6 16.432C9.79296 16.704 12.4141 20.704 16.402 22.416C17.3508 22.832 18.0905 23.072 18.6693 23.248C19.6181 23.552 20.4864 23.504 21.1779 23.408C21.9497 23.296 23.5417 22.448 23.8633 21.52C24.201 20.592 24.201 19.808 24.0884 19.632C23.9759 19.456 23.7347 19.376 23.3327 19.184Z" fill="white"/>
</svg>
