<svg width="24" height="24" viewBox="0 0 24 24" fill="none" xmlns="http://www.w3.org/2000/svg">
<path d="M5 5.00976H11C11.55 5.00976 12 4.55756 12 4.00488C12 3.4522 11.55 3 11 3H5C3.9 3 3 3.90439 3 5.00976V19.078C3 20.1834 3.9 21.0878 5 21.0878H11C11.55 21.0878 12 20.6356 12 20.0829C12 19.5302 11.55 19.078 11 19.078H5V5.00976Z" fill="#FB743E"/>
<path d="M20.65 11.6922L17.86 8.88858C17.54 8.56702 17 8.7881 17 9.24029V11.039H10C9.45 11.039 9 11.4912 9 12.0439C9 12.5966 9.45 13.0488 10 13.0488H17V14.8475C17 15.2997 17.54 15.5208 17.85 15.1992L20.64 12.3956C20.84 12.2047 20.84 11.8831 20.65 11.6922Z" fill="#FB743E"/>
</svg>
