<svg width="24" height="24" viewBox="0 0 24 24" fill="none" xmlns="http://www.w3.org/2000/svg">
<path d="M13.5515 3.00349C8.46153 2.86349 4.29153 6.95349 4.29153 12.0035H2.50153C2.05153 12.0035 1.83153 12.5435 2.15153 12.8535L4.94153 15.6535C5.14153 15.8535 5.45153 15.8535 5.65153 15.6535L8.44153 12.8535C8.75153 12.5435 8.53153 12.0035 8.08153 12.0035H6.29153C6.29153 8.10349 9.47153 4.95349 13.3915 5.00349C17.1115 5.05349 20.2415 8.18349 20.2915 11.9035C20.3415 15.8135 17.1915 19.0035 13.2915 19.0035C11.6815 19.0035 10.1915 18.4535 9.01153 17.5235C8.61153 17.2135 8.05153 17.2435 7.69153 17.6035C7.27153 18.0235 7.30153 18.7335 7.77153 19.0935C9.29153 20.2935 11.2015 21.0035 13.2915 21.0035C18.3415 21.0035 22.4315 16.8335 22.2915 11.7435C22.1615 7.05349 18.2415 3.13349 13.5515 3.00349ZM13.0415 8.00349C12.6315 8.00349 12.2915 8.34349 12.2915 8.75349V12.4335C12.2915 12.7835 12.4815 13.1135 12.7815 13.2935L15.9015 15.1435C16.2615 15.3535 16.7215 15.2335 16.9315 14.8835C17.1415 14.5235 17.0215 14.0635 16.6715 13.8535L13.7915 12.1435V8.74349C13.7915 8.34349 13.4515 8.00349 13.0415 8.00349Z" fill="black"/>
</svg>
