<svg width="24" height="24" viewBox="0 0 24 24" fill="none" xmlns="http://www.w3.org/2000/svg">
<path d="M13 10C13.55 10 14 9.55 14 9V7H16C16.55 7 17 6.55 17 6C17 5.45 16.55 5 16 5H14V3C14 2.45 13.55 2 13 2C12.45 2 12 2.45 12 3V5H10C9.45 5 9 5.45 9 6C9 6.55 9.45 7 10 7H12V9C12 9.55 12.45 10 13 10ZM8 19C6.9 19 6.01 19.9 6.01 21C6.01 22.1 6.9 23 8 23C9.1 23 10 22.1 10 21C10 19.9 9.1 19 8 19ZM18 19C16.9 19 16.01 19.9 16.01 21C16.01 22.1 16.9 23 18 23C19.1 23 20 22.1 20 21C20 19.9 19.1 19 18 19ZM9.1 14H16.55C17.3 14 17.96 13.59 18.3 12.97L21.54 6.83C21.79 6.35 21.62 5.75 21.14 5.49C20.65 5.22 20.04 5.41 19.78 5.9L16.55 12H9.53L5.27 3H3C2.45 3 2 3.45 2 4C2 4.55 2.45 5 3 5H4L7.6 12.59L6.25 15.03C5.52 16.37 6.48 18 8 18H19C19.55 18 20 17.55 20 17C20 16.45 19.55 16 19 16H8L9.1 14Z" fill="#FB743E"/>
</svg>
