<svg width="120" height="121" viewBox="0 0 120 121" fill="none" xmlns="http://www.w3.org/2000/svg">
<rect y="0.5" width="120" height="120" rx="60" fill="#BABEC1"/>
<path d="M60 45C62.75 45 65 47.25 65 50C65 52.75 62.75 55 60 55C57.25 55 55 52.75 55 50C55 47.25 57.25 45 60 45ZM60 70C66.75 70 74.5 73.225 75 75H45C45.575 73.2 53.275 70 60 70ZM60 40C54.475 40 50 44.475 50 50C50 55.525 54.475 60 60 60C65.525 60 70 55.525 70 50C70 44.475 65.525 40 60 40ZM60 65C53.325 65 40 68.35 40 75V80H80V75C80 68.35 66.675 65 60 65Z" fill="#828282"/>
</svg>
